<svg width="25" height="25" viewBox="0 0 25 25" fill="none" xmlns="http://www.w3.org/2000/svg">
<mask id="mask0_9_2" style="mask-type:luminance" maskUnits="userSpaceOnUse" x="0" y="0" width="25" height="25">
<path d="M24.7778 0.522461H0.396973V24.9032H24.7778V0.522461Z" fill="white"/>
</mask>
<g mask="url(#mask0_9_2)">
<path d="M20.7159 6.61694C20.9747 6.61723 21.2238 6.71638 21.4121 6.89411C21.6004 7.07186 21.7137 7.3148 21.7288 7.57327C21.7441 7.83176 21.66 8.08627 21.4938 8.28482C21.3276 8.48338 21.0918 8.61098 20.8347 8.64156L20.7159 8.64868H20.6336L19.7 19.8233C19.7 20.6006 19.403 21.3485 18.8697 21.9142C18.3364 22.4797 17.6072 22.8201 16.8312 22.8658L16.6524 22.8708H8.52548C6.90212 22.8708 5.5754 21.6019 5.486 20.0772L5.48092 19.9075L4.54328 8.64868H4.462C4.20308 8.64839 3.95404 8.54925 3.76577 8.3715C3.57749 8.19376 3.46419 7.95082 3.44901 7.69235C3.43383 7.43386 3.51794 7.17935 3.68412 6.9808C3.8503 6.78225 4.08603 6.65464 4.34315 6.62405L4.462 6.61694H20.7159Z" fill="white"/>
<path d="M14.6205 2.55396C15.1595 2.55396 15.6762 2.76801 16.0572 3.14903C16.4383 3.53006 16.6524 4.04684 16.6524 4.58569C16.652 4.84461 16.5529 5.09365 16.3751 5.28193C16.1974 5.4702 15.9545 5.58351 15.6961 5.59868C15.4375 5.61385 15.183 5.52976 14.9845 5.36357C14.7859 5.19739 14.6583 4.96165 14.6276 4.70455L14.6205 4.58569H10.5571L10.55 4.70455C10.5194 4.96165 10.3918 5.19739 10.1933 5.36357C9.99472 5.52976 9.74021 5.61385 9.48172 5.59868C9.22325 5.58351 8.98031 5.4702 8.80257 5.28193C8.62482 5.09365 8.52568 4.84461 8.52539 4.58569C8.52523 4.0731 8.71882 3.5794 9.06735 3.20355C9.41589 2.82771 9.89361 2.59748 10.4047 2.55903L10.5571 2.55396H14.6205Z" fill="white"/>
</g>
</svg>
