<svg width="25" height="25" viewBox="0 0 25 25" fill="none" xmlns="http://www.w3.org/2000/svg">
<g clip-path="url(#clip0_6_2)">
<path d="M23.5486 12.493C24.403 12.6145 24.997 13.4056 24.8756 14.2599C24.5041 16.8723 23.3153 19.3003 21.4797 21.1959C19.6439 23.0914 17.2555 24.3575 14.6562 24.8127C12.057 25.2678 9.38045 24.8888 7.00986 23.7297C5.89586 23.1852 4.87628 22.4814 3.98 21.6464L2.66736 22.9591C1.68303 23.9434 0 23.2463 0 21.8542V15.625H6.22927C7.6213 15.625 8.31844 17.308 7.33411 18.2923L6.19156 19.4348C6.84384 20.0283 7.58052 20.5303 8.38242 20.9223C10.1604 21.7916 12.1678 22.0758 14.1172 21.7345C16.0666 21.3931 17.858 20.4436 19.2347 19.0219C20.6116 17.6002 21.5031 15.7794 21.7817 13.8199C21.9033 12.9656 22.6944 12.3715 23.5486 12.493ZM17.9902 1.27028C19.1061 1.81586 20.1272 2.52108 21.0247 3.35789L22.3327 2.04989C23.317 1.06556 25 1.7627 25 3.15475V9.37502H18.7797C17.3877 9.37502 16.6905 7.69199 17.6748 6.70767L18.8131 5.56939C18.1597 4.97416 17.4214 4.4707 16.6177 4.0777C14.8396 3.20847 12.8322 2.92416 10.8828 3.26553C8.93339 3.60689 7.14202 4.55642 5.76525 5.97811C4.38847 7.39978 3.49691 9.2207 3.21827 11.1801C3.09677 12.0344 2.30569 12.6285 1.45134 12.507C0.596992 12.3855 0.00289977 11.5944 0.124398 10.7401C0.495922 8.12759 1.68466 5.69972 3.52036 3.80414C5.35606 1.90856 7.74456 0.642527 10.3438 0.187369C12.943 -0.267787 15.6195 0.111278 17.9902 1.27028Z" fill="#4CAF50"/>
</g>
<defs>
<clipPath id="clip0_6_2">
<rect width="25" height="25" fill="white"/>
</clipPath>
</defs>
</svg>
